<svg width="135" height="54" viewBox="0 0 135 54" fill="none" xmlns="http://www.w3.org/2000/svg">
<g clip-path="url(#clip0_344_39)">
<path d="M47.8717 34.7509C44.291 34.7509 42.1816 33.1955 42.1816 30.2264C42.1816 26.6191 45.7357 25.2321 50.5616 24.7624V23.845C50.5616 21.7933 49.4537 20.8759 47.3709 20.8759C46.0681 20.8759 44.65 21.2659 43.6263 21.8198L43.0413 20.322C44.291 19.6794 45.9839 19.2407 47.5925 19.2407C50.8408 19.2407 52.8394 20.7652 52.8394 24.0976V33.6962C51.6473 34.3344 49.8703 34.7509 47.8717 34.7509ZM50.5616 26.0342C46.7594 26.4773 44.5126 27.532 44.5126 30.1688C44.5126 32.194 45.7623 33.3329 48.0932 33.3329C49.0371 33.3329 49.9811 33.1379 50.5616 32.8321V26.0342Z" fill="#F2F2F7"/>
<path d="M64.5581 34.4715V24.1506C64.5581 21.9038 63.6408 20.7915 61.1991 20.7915C60.171 20.7915 59.3379 20.9599 58.5624 21.2923V34.4715H56.1206V20.2908C57.5077 19.6526 59.3379 19.2361 61.1991 19.2361C65.2229 19.2361 66.9999 20.9821 66.9999 24.1462V34.4715H64.5581Z" fill="#F2F2F7"/>
<path d="M73.9382 34.6133C71.8023 34.6133 70.3576 33.3104 70.3576 30.8376V21.044H68.6382V19.5152H70.3576V16.0764L72.7994 15.323V19.5152H75.4095V21.044H72.7994V30.8376C72.7994 32.1405 73.4375 32.9204 74.6606 32.9204C74.9398 32.9204 75.1879 32.8938 75.4095 32.8096V34.3651C75.0195 34.5291 74.5188 34.6133 73.9382 34.6133Z" fill="#F2F2F7"/>
<path d="M94.4701 34.4715V24.0398C94.4701 22.0678 93.5838 20.7915 91.3902 20.7915C90.1671 20.7915 89.1966 21.3455 88.4787 22.2096V34.4715H86.0635V23.6498C86.0635 21.9304 85.1196 20.7871 82.9039 20.7871C81.765 20.7871 80.9319 20.9289 80.0988 21.2879V34.4715H77.6836V20.2908C79.1283 19.6526 80.7901 19.2361 82.8153 19.2361C85.062 19.2361 86.3383 19.8476 87.3088 20.9821C88.3059 19.9008 89.8347 19.2361 91.6118 19.2361C95.2766 19.2361 96.8852 21.2081 96.8852 24.062V34.4715H94.4701Z" fill="#F2F2F7"/>
<path d="M100.19 34.4716V29.1583V24.5407V19.5154H101.511H102.632V23.322V26.9426V34.4716H101.435H100.19Z" fill="#F2F2F7"/>
<path d="M110.707 34.7507C107.099 34.7507 104.906 31.5556 104.906 26.9779C104.906 22.4002 107.126 19.2361 110.707 19.2361C112.094 19.2361 113.259 19.595 114.066 20.2066L113.485 21.6512C112.9 21.2081 112.014 20.8979 111.123 20.8979C108.739 20.8979 107.405 23.4814 107.405 26.9203C107.405 30.3059 108.766 32.9693 111.123 32.9693C112.014 32.9693 112.874 32.6901 113.454 32.2514L114.066 33.7758C113.255 34.3918 112.094 34.7507 110.707 34.7507Z" fill="#F2F2F7"/>
<path d="M122.272 21.1549C121.829 20.9865 121.302 20.9023 120.748 20.9023C120.083 20.9023 119.388 21.0131 118.86 21.2923V34.4715H116.418V20.2908C117.695 19.6526 119.388 19.2361 121.524 19.2361C122.082 19.2361 122.689 19.2893 122.826 19.3159L122.272 21.1549Z" fill="#F2F2F7"/>
<path d="M129.088 34.7507C125.038 34.7507 123.177 31.4758 123.177 26.9779C123.177 22.511 125.034 19.2361 129.088 19.2361C133.139 19.2361 135 22.511 135 26.9779C134.996 31.4758 133.139 34.7507 129.088 34.7507ZM129.088 20.7915C126.483 20.7915 125.619 23.5967 125.619 26.9247C125.619 30.2528 126.483 33.1111 129.088 33.1111C131.699 33.1111 132.558 30.2528 132.558 26.9247C132.558 23.5967 131.694 20.7915 129.088 20.7915Z" fill="#F2F2F7"/>
<path d="M19.0595 27.2085H23.194C23.3314 27.7181 23.8012 28.0859 24.3595 28.0859C25.0287 28.0859 25.5693 27.563 25.5693 26.8938C25.5693 26.2247 25.0287 25.6619 24.3595 25.6619C23.7967 25.6619 23.327 26.0607 23.194 26.5836H19.0595V24.811H20.9827C20.9827 24.811 21.1423 24.8288 21.2398 24.7534C21.4126 24.6205 21.8557 24.1906 21.8557 24.1906L23.07 22.9764C23.2384 23.065 23.4245 23.1182 23.6283 23.1182C24.2975 23.1182 24.8426 22.5731 24.8426 21.904C24.8426 21.2348 24.3019 20.6898 23.6283 20.6898C22.9592 20.6898 22.4185 21.2304 22.4185 21.904C22.4185 22.1433 22.4894 22.3649 22.6091 22.5554L21.1954 23.9735C21.1954 23.9735 21.0182 24.1419 20.9517 24.1685C20.9118 24.1862 20.8055 24.1862 20.8055 24.1862H19.0728V23.4284V21.4874C19.866 21.3412 20.4642 20.6454 20.4642 19.8123C20.4642 18.8684 19.6976 18.1062 18.7581 18.1062C17.8142 18.1062 17.052 18.8684 17.052 19.8123C17.052 20.6454 17.6547 21.3412 18.4479 21.4874V24.1906C18.4479 24.1906 16.6088 24.1906 16.5645 24.1729C16.4936 24.1463 16.3208 23.9779 16.3208 23.9779L14.9027 22.5598C15.0224 22.3737 15.0933 22.1521 15.0933 21.9084C15.0933 21.2393 14.5526 20.6942 13.8791 20.6942C13.2099 20.6942 12.6648 21.2348 12.6648 21.9084C12.6648 22.5776 13.2055 23.1226 13.8791 23.1226C14.0829 23.1226 14.269 23.0695 14.4374 22.9808L15.6516 24.1951C15.6516 24.1951 16.0904 24.6249 16.2632 24.7579C16.3607 24.8332 16.5202 24.8155 16.5202 24.8155H18.4435V26.5881H14.3089C14.1715 26.0652 13.7062 25.6663 13.1434 25.6663C12.4743 25.6663 11.9292 26.2291 11.9292 26.8983C11.9292 27.5674 12.4698 28.0903 13.1434 28.0903C13.7018 28.0903 14.1715 27.7225 14.3089 27.2129H18.4435V28.9412H16.5202C16.5202 28.9412 16.3607 28.9235 16.2632 28.9988C16.0904 29.1362 15.6516 29.5616 15.6516 29.5616L14.4374 30.7758C14.269 30.6872 14.0829 30.634 13.8791 30.634C13.2099 30.634 12.6648 31.1791 12.6648 31.8482C12.6648 32.5174 13.2055 33.0625 13.8791 33.0625C14.5482 33.0625 15.0933 32.5218 15.0933 31.8482C15.0933 31.6089 15.0224 31.3874 14.9027 31.1968L16.3208 29.7787C16.3208 29.7787 16.4936 29.6103 16.5645 29.5793C16.6044 29.5616 16.7108 29.5616 16.7108 29.5616H18.4479V32.2648C17.6547 32.411 17.052 33.1068 17.052 33.9399C17.052 34.8794 17.8186 35.646 18.7581 35.646C19.6976 35.646 20.4642 34.8794 20.4642 33.9399C20.4642 33.1068 19.8616 32.411 19.0728 32.2648V29.5616H20.8055C20.8055 29.5616 20.9118 29.5616 20.9517 29.5793C21.0226 29.6059 21.1954 29.7787 21.1954 29.7787L22.6091 31.1968C22.4894 31.3829 22.4185 31.6089 22.4185 31.8482C22.4185 32.5174 22.9592 33.0625 23.6283 33.0625C24.2975 33.0625 24.8426 32.5218 24.8426 31.8482C24.8426 31.1791 24.3019 30.634 23.6283 30.634C23.4245 30.634 23.2384 30.6872 23.07 30.7758L21.8557 29.5616C21.8557 29.5616 21.4126 29.1317 21.2398 28.9988C21.1423 28.9235 20.9827 28.9412 20.9827 28.9412H19.0595V27.9086V27.2085V27.2085ZM24.3595 26.2823C24.6874 26.2823 24.9533 26.5482 24.9533 26.8761C24.9533 27.204 24.6874 27.4699 24.3595 27.4699C24.0316 27.4699 23.7657 27.204 23.7657 26.8761C23.7657 26.5482 24.036 26.2823 24.3595 26.2823ZM23.6239 21.3146C23.9518 21.3146 24.2177 21.5805 24.2177 21.9084C24.2177 22.2363 23.9518 22.5022 23.6239 22.5022C23.296 22.5022 23.0301 22.2363 23.0301 21.9084C23.0301 21.5805 23.296 21.3146 23.6239 21.3146ZM13.8702 22.4978C13.5423 22.4978 13.2764 22.2319 13.2764 21.904C13.2764 21.5761 13.5423 21.3102 13.8702 21.3102C14.1981 21.3102 14.464 21.5761 14.464 21.904C14.464 22.2319 14.1981 22.4978 13.8702 22.4978ZM13.1301 27.4655C12.8022 27.4655 12.5363 27.1996 12.5363 26.8717C12.5363 26.5438 12.8022 26.2779 13.1301 26.2779C13.4581 26.2779 13.724 26.5438 13.724 26.8717C13.724 27.1996 13.4581 27.4655 13.1301 27.4655ZM13.8702 32.4332C13.5423 32.4332 13.2764 32.1673 13.2764 31.8394C13.2764 31.5114 13.5423 31.2456 13.8702 31.2456C14.1981 31.2456 14.464 31.5114 14.464 31.8394C14.464 32.1673 14.1981 32.4332 13.8702 32.4332ZM23.6239 31.2456C23.9518 31.2456 24.2177 31.5114 24.2177 31.8394C24.2177 32.1673 23.9518 32.4332 23.6239 32.4332C23.296 32.4332 23.0301 32.1673 23.0301 31.8394C23.0301 31.5114 23.296 31.2456 23.6239 31.2456ZM18.7493 35.0123C18.1554 35.0123 17.6724 34.5293 17.6724 33.9355C17.6724 33.3416 18.1554 32.8586 18.7493 32.8586C19.3431 32.8586 19.8261 33.3416 19.8261 33.9355C19.8261 34.5293 19.3431 35.0123 18.7493 35.0123ZM18.7493 18.731C19.3431 18.731 19.8261 19.2141 19.8261 19.8079C19.8261 20.4017 19.3431 20.8847 18.7493 20.8847C18.1554 20.8847 17.6724 20.4017 17.6724 19.8079C17.668 19.2141 18.1554 18.731 18.7493 18.731Z" fill="#F2F2F7"/>
<path d="M37.4722 17.2065C37.4855 16.3955 37.06 15.6422 36.3554 15.2345L19.8703 5.70235C19.1746 5.29909 18.3193 5.29909 17.6235 5.70235L1.11625 15.2611C0.424934 15.6643 -0.000488281 16.4 -0.000488281 17.2021V36.5765C-0.000488281 37.3786 0.424934 38.1187 1.12068 38.5175L17.628 48.0363C18.3193 48.4396 19.1746 48.4396 19.8659 48.0363L36.3732 38.5219C37.0689 38.1231 37.4943 37.3786 37.4943 36.5809L37.4722 17.2065ZM30.4039 34.4317L19.3873 40.7864C18.9973 41.008 18.5187 41.008 18.1287 40.7864L7.11205 34.4317C6.72208 34.2057 6.48278 33.7935 6.48278 33.3415V20.4149C6.48278 19.9629 6.72208 19.5507 7.10762 19.3247L18.1287 12.9434C18.5187 12.7174 18.9973 12.7174 19.3873 12.9434L30.3951 19.307C30.7895 19.5374 31.0288 19.9584 31.0199 20.4149V20.539L31.0332 33.346C31.0332 33.7935 30.7939 34.2101 30.4039 34.4317Z" fill="#F2F2F7"/>
</g>
<defs>
<clipPath id="clip0_344_39">
<rect width="135" height="54" fill="white"/>
</clipPath>
</defs>
</svg>
